<?xml version="1.0" encoding="utf-8"?>
<!-- Generator: Adobe Illustrator 16.0.0, SVG Export Plug-In . SVG Version: 6.00 Build 0)  -->
<!DOCTYPE svg PUBLIC "-//W3C//DTD SVG 1.1//EN" "http://www.w3.org/Graphics/SVG/1.1/DTD/svg11.dtd">
<svg version="1.1" id="Layer_5_copy" xmlns="http://www.w3.org/2000/svg" xmlns:xlink="http://www.w3.org/1999/xlink" x="0px"
	 y="0px" width="240px" height="62.667px" viewBox="0 0 240 62.667" enable-background="new 0 0 240 62.667" xml:space="preserve">
<g>
	<path fill="#59616A" stroke="#59616A" stroke-width="0.5" stroke-miterlimit="10" d="M83.233,14.588
		c8.644-0.053,15.295,6.312,15.345,14.746c0.052,8.432-6.564,14.873-15.296,14.922l-11.866,0.071l-0.179-29.666L83.233,14.588z
		 M74.789,41.087l8.645-0.05c6.611-0.042,11.752-5.031,11.713-11.639c-0.04-6.662-5.325-11.586-11.98-11.548l-8.517,0.053
		L74.789,41.087z"/>
	<path fill="#59616A" stroke="#59616A" stroke-width="0.5" stroke-miterlimit="10" d="M125.021,34.121l-18.225,0.109
		c0.621,4.358,3.816,7.098,8.14,7.072c2.754-0.012,5.164-1.008,6.892-2.837l1.833,1.938c-2.105,2.382-5.233,3.76-8.964,3.783
		c-6.567,0.038-11.132-4.552-11.171-11.208c-0.038-6.652,4.508-11.297,10.995-11.335C121.725,21.555,125.316,26.535,125.021,34.121z
		 M122.04,31.427c-0.238-4.282-3.137-6.975-7.501-6.945c-4.238,0.021-7.274,2.793-7.758,7.034L122.04,31.427z"/>
	<path fill="#59616A" stroke="#59616A" stroke-width="0.5" stroke-miterlimit="10" d="M134.566,26.546
		c1.464-3.271,4.208-5.065,7.981-5.133l0.021,3.351c-4.705-0.06-7.612,2.884-7.967,7.292l0.073,11.869l-3.308,0.018l-0.137-22.333
		l3.308-0.021L134.566,26.546z"/>
	<path fill="#59616A" stroke="#59616A" stroke-width="0.5" stroke-miterlimit="10" d="M152.181,15.072
		c0.008,1.316-0.918,2.294-2.149,2.303c-1.23,0.006-2.167-0.963-2.174-2.273c-0.009-1.312,0.917-2.296,2.146-2.302
		C151.236,12.791,152.174,13.762,152.181,15.072z M148.58,43.833l-0.132-22.335l3.263-0.023l0.135,22.337L148.58,43.833z"/>
	<path fill="#59616A" stroke="#59616A" stroke-width="0.5" stroke-miterlimit="10" d="M160.711,43.742l-0.189-31.448l3.308-0.018
		l0.189,31.448L160.711,43.742z"/>
	<path fill="#59616A" stroke="#59616A" stroke-width="0.5" stroke-miterlimit="10" d="M177.331,14.896
		c0.007,1.313-0.919,2.296-2.15,2.302c-1.227,0.009-2.165-0.96-2.174-2.279c-0.007-1.31,0.92-2.291,2.147-2.297
		C176.384,12.611,177.321,13.587,177.331,14.896z M173.73,43.654l-0.135-22.332l3.265-0.023l0.132,22.338L173.73,43.654z"/>
	<path fill="#59616A" stroke="#59616A" stroke-width="0.5" stroke-miterlimit="10" d="M206.839,29.668l0.084,13.781l-3.306,0.014
		l-0.077-12.881c-0.022-3.941-2.41-6.262-6.351-6.235c-4.408,0.067-7.104,2.966-7.459,7.205l0.071,11.995l-3.308,0.021
		l-0.132-22.335l3.305-0.018l0.03,4.916c1.548-3.398,4.546-5.028,8.616-5.096C203.653,21.005,206.808,24.291,206.839,29.668z"/>
	<linearGradient id="SVGID_1_" gradientUnits="userSpaceOnUse" x1="212.1533" y1="32.3062" x2="234.5005" y2="32.3062">
		<stop  offset="0.0039" style="stop-color:#FFD385"/>
		<stop  offset="1" style="stop-color:#E49E2C"/>
	</linearGradient>
	<path fill="url(#SVGID_1_)" d="M212.153,20.465c0.703,0.229,17.95,23.665,17.95,23.665l4.397,0.018l-17.872-23.668L212.153,20.465z
		"/>
	<path fill="#59616A" stroke="#59616A" stroke-width="0.5" stroke-miterlimit="10" d="M226.335,28.1l5.236-7.121h4.264l-7.381,9.929
		L226.335,28.1z"/>
	<polygon fill="#59616A" stroke="#59616A" stroke-width="0.5" stroke-miterlimit="10" points="221.896,38.18 218.24,43.625 
		213.971,43.625 219.777,35.161 	"/>
	<linearGradient id="SVGID_2_" gradientUnits="userSpaceOnUse" x1="20.6455" y1="28.3882" x2="11.7639" y2="43.7716">
		<stop  offset="0.0039" style="stop-color:#FFD385"/>
		<stop  offset="1" style="stop-color:#E49E2C"/>
	</linearGradient>
	<rect x="2.662" y="33.643" fill-rule="evenodd" clip-rule="evenodd" fill="url(#SVGID_2_)" width="27.084" height="4.875"/>
	<linearGradient id="SVGID_3_" gradientUnits="userSpaceOnUse" x1="30.1045" y1="54.0952" x2="24.1658" y2="57.5239">
		<stop  offset="0.0039" style="stop-color:#FFD385"/>
		<stop  offset="1" style="stop-color:#E49E2C"/>
	</linearGradient>
	<rect x="24.609" y="53.327" fill-rule="evenodd" clip-rule="evenodd" fill="url(#SVGID_3_)" width="5.052" height="4.964"/>
	<linearGradient id="SVGID_4_" gradientUnits="userSpaceOnUse" x1="24.3477" y1="40.4399" x2="17.9904" y2="51.4511">
		<stop  offset="0.0039" style="stop-color:#FFD385"/>
		<stop  offset="1" style="stop-color:#E49E2C"/>
	</linearGradient>
	<rect x="12.677" y="43.507" fill-rule="evenodd" clip-rule="evenodd" fill="url(#SVGID_4_)" width="16.984" height="4.876"/>
	<linearGradient id="SVGID_5_" gradientUnits="userSpaceOnUse" x1="35.3867" y1="30.7964" x2="57.8123" y2="17.849">
		<stop  offset="0.0039" style="stop-color:#FFD385"/>
		<stop  offset="1" style="stop-color:#E49E2C"/>
	</linearGradient>
	<rect x="33.057" y="21.886" fill-rule="evenodd" clip-rule="evenodd" fill="url(#SVGID_5_)" width="27.086" height="4.875"/>
	<linearGradient id="SVGID_6_" gradientUnits="userSpaceOnUse" x1="34.1235" y1="18.8999" x2="48.9735" y2="10.3263">
		<stop  offset="0.0039" style="stop-color:#FFD385"/>
		<stop  offset="1" style="stop-color:#E49E2C"/>
	</linearGradient>
	<rect x="33.057" y="12.174" fill-rule="evenodd" clip-rule="evenodd" fill="url(#SVGID_6_)" width="16.983" height="4.878"/>
	<linearGradient id="SVGID_7_" gradientUnits="userSpaceOnUse" x1="35.5815" y1="7.4277" x2="35.5815" y2="2.4644">
		<stop  offset="0.0039" style="stop-color:#FFD385"/>
		<stop  offset="1" style="stop-color:#E49E2C"/>
	</linearGradient>
	<rect x="33.057" y="2.464" fill-rule="evenodd" clip-rule="evenodd" fill="url(#SVGID_7_)" width="5.05" height="4.963"/>
	<linearGradient id="SVGID_8_" gradientUnits="userSpaceOnUse" x1="54.1113" y1="31.7056" x2="59.1191" y2="36.7133">
		<stop  offset="0.0039" style="stop-color:#FFD385"/>
		<stop  offset="1" style="stop-color:#E49E2C"/>
	</linearGradient>
	<rect x="54.089" y="31.728" fill-rule="evenodd" clip-rule="evenodd" fill="url(#SVGID_8_)" width="5.051" height="4.963"/>
	<linearGradient id="SVGID_9_" gradientUnits="userSpaceOnUse" x1="7.7339" y1="28.7432" x2="2.7275" y2="23.7368">
		<stop  offset="0.0039" style="stop-color:#FFD385"/>
		<stop  offset="1" style="stop-color:#E49E2C"/>
	</linearGradient>
	<rect x="2.704" y="23.759" fill-rule="evenodd" clip-rule="evenodd" fill="url(#SVGID_9_)" width="5.053" height="4.96"/>
	
		<linearGradient id="SVGID_10_" gradientUnits="userSpaceOnUse" x1="828.3252" y1="259.9819" x2="855.4092" y2="259.9819" gradientTransform="matrix(0 -1 1 0 -234.313 857.104)">
		<stop  offset="0.0039" style="stop-color:#FFD385"/>
		<stop  offset="1" style="stop-color:#E49E2C"/>
	</linearGradient>
	<rect x="23.23" y="1.695" fill-rule="evenodd" clip-rule="evenodd" fill="url(#SVGID_10_)" width="4.877" height="27.084"/>
	
		<linearGradient id="SVGID_11_" gradientUnits="userSpaceOnUse" x1="825.333" y1="271.5933" x2="798.248" y2="271.5933" gradientTransform="matrix(0 -1 1 0 -234.313 857.104)">
		<stop  offset="0.0039" style="stop-color:#FFD385"/>
		<stop  offset="1" style="stop-color:#E49E2C"/>
	</linearGradient>
	<rect x="34.841" y="31.771" fill-rule="evenodd" clip-rule="evenodd" fill="url(#SVGID_11_)" width="4.878" height="27.085"/>
	
		<linearGradient id="SVGID_12_" gradientUnits="userSpaceOnUse" x1="825.3916" y1="281.2593" x2="809.4551" y2="281.2593" gradientTransform="matrix(0 -1 1 0 -234.313 857.104)">
		<stop  offset="0.0039" style="stop-color:#FFD385"/>
		<stop  offset="1" style="stop-color:#E49E2C"/>
	</linearGradient>
	<rect x="44.508" y="31.713" fill-rule="evenodd" clip-rule="evenodd" fill="url(#SVGID_12_)" width="4.876" height="15.937"/>
	
		<linearGradient id="SVGID_13_" gradientUnits="userSpaceOnUse" x1="828.3838" y1="249.7622" x2="844.3193" y2="249.7622" gradientTransform="matrix(0 -1 1 0 -234.313 857.104)">
		<stop  offset="0.0039" style="stop-color:#FFD385"/>
		<stop  offset="1" style="stop-color:#E49E2C"/>
	</linearGradient>
	<rect x="13.01" y="12.784" fill-rule="evenodd" clip-rule="evenodd" fill="url(#SVGID_13_)" width="4.877" height="15.936"/>
</g>
<g>
	<path fill="#59616A" d="M75.416,55.598c0,1.272-0.873,2.643-2.705,2.643h-1.541c-0.192,0-0.345-0.151-0.345-0.34v-4.597
		c0-0.189,0.153-0.348,0.345-0.348h1.541C74.543,52.956,75.416,54.318,75.416,55.598z M74.726,55.598c0-1.182-0.82-1.999-2.1-1.999
		h-1.103v3.999h1.103C73.906,57.598,74.726,56.78,74.726,55.598z"/>
	<path fill="#59616A" d="M80.699,57.938c0,0.189-0.153,0.34-0.344,0.34c-0.215,0-0.353-0.136-0.353-0.34v-0.228
		c0-0.499-0.031-1.53-1.188-1.53h-1.586v1.758c0,0.189-0.161,0.34-0.353,0.34s-0.345-0.151-0.345-0.34v-4.635
		c0-0.189,0.153-0.348,0.345-0.348h1.786c1.456,0,2.084,0.667,2.084,1.538c0,0.583-0.33,1.143-1.003,1.37
		c0.851,0.219,0.958,1.303,0.958,1.727V57.938z M80.048,54.546c0-0.562-0.337-0.94-1.472-0.94h-1.349v1.924h1.387
		C79.473,55.53,80.048,55.189,80.048,54.546z"/>
	<path fill="#59616A" d="M82.64,53.266v4.672c0,0.189-0.161,0.34-0.353,0.34c-0.191,0-0.345-0.151-0.345-0.34v-4.672
		c0-0.19,0.153-0.348,0.345-0.348C82.479,52.918,82.64,53.076,82.64,53.266z"/>
	<path fill="#59616A" d="M86.003,57.59l1.801-4.438c0.061-0.144,0.191-0.235,0.329-0.235c0.215,0,0.345,0.144,0.345,0.348
		c0,0.038-0.007,0.091-0.023,0.128l-1.893,4.537c-0.1,0.219-0.261,0.347-0.475,0.347h-0.169c-0.214,0-0.375-0.128-0.475-0.347
		l-1.893-4.537c-0.016-0.038-0.023-0.091-0.023-0.128c0-0.205,0.13-0.348,0.345-0.348c0.138,0,0.268,0.091,0.329,0.235L86.003,57.59
		z"/>
	<path fill="#59616A" d="M93.11,57.922c0,0.182-0.146,0.318-0.329,0.318h-3.073c-0.192,0-0.346-0.151-0.346-0.34v-4.597
		c0-0.189,0.154-0.348,0.346-0.348h3.073c0.184,0,0.329,0.145,0.329,0.326c0,0.181-0.146,0.317-0.329,0.317h-2.722v1.674h2.445
		c0.184,0,0.331,0.144,0.331,0.325c0,0.182-0.147,0.318-0.331,0.318h-2.445v1.681h2.722C92.964,57.598,93.11,57.742,93.11,57.922z"
		/>
	<path fill="#59616A" d="M100.752,55.598c0,1.272-0.873,2.643-2.705,2.643h-1.541c-0.192,0-0.345-0.151-0.345-0.34v-4.597
		c0-0.189,0.153-0.348,0.345-0.348h1.541C99.879,52.956,100.752,54.318,100.752,55.598z M100.062,55.598
		c0-1.182-0.82-1.999-2.1-1.999h-1.104v3.999h1.104C99.242,57.598,100.062,56.78,100.062,55.598z"/>
	<path fill="#59616A" d="M105.613,57.922c0,0.182-0.146,0.318-0.329,0.318h-3.074c-0.191,0-0.345-0.151-0.345-0.34v-4.597
		c0-0.189,0.153-0.348,0.345-0.348h3.074c0.183,0,0.329,0.145,0.329,0.326c0,0.181-0.146,0.317-0.329,0.317h-2.721v1.674h2.445
		c0.183,0,0.33,0.144,0.33,0.325c0,0.182-0.146,0.318-0.33,0.318h-2.445v1.681h2.721C105.468,57.598,105.613,57.742,105.613,57.922z
		"/>
	<path fill="#59616A" d="M110.943,57.574c-0.008,0.144-0.069,0.22-0.169,0.273c-0.475,0.264-0.996,0.47-1.747,0.47
		c-1.525,0-2.682-1.031-2.682-2.719c0-1.688,1.157-2.719,2.682-2.719c0.751,0,1.271,0.207,1.747,0.471
		c0.1,0.052,0.162,0.128,0.169,0.273c0.007,0.159-0.116,0.302-0.307,0.302c-0.038,0-0.091-0.007-0.137-0.03
		c-0.407-0.211-0.804-0.355-1.403-0.355c-1.356,0-2.054,0.893-2.054,2.06s0.697,2.06,2.054,2.06c0.599,0,0.996-0.144,1.403-0.355
		c0.046-0.023,0.1-0.03,0.137-0.03C110.828,57.272,110.951,57.416,110.943,57.574z"/>
	<path fill="#59616A" d="M112.662,53.266v4.672c0,0.189-0.161,0.34-0.353,0.34c-0.192,0-0.345-0.151-0.345-0.34v-4.672
		c0-0.19,0.153-0.348,0.345-0.348C112.501,52.918,112.662,53.076,112.662,53.266z"/>
	<path fill="#59616A" d="M117.757,56.84c0,0.855-0.774,1.477-1.962,1.477c-0.767,0-1.38-0.175-1.824-0.364
		c-0.116-0.045-0.216-0.175-0.216-0.31c0-0.167,0.124-0.319,0.315-0.319c0.046,0,0.092,0.008,0.146,0.032
		c0.345,0.151,0.851,0.309,1.51,0.309c0.758,0,1.341-0.211,1.341-0.871c0-1.12-3.257-0.499-3.257-2.363
		c0-0.84,0.69-1.553,1.985-1.553c0.598,0,1.111,0.099,1.525,0.251c0.107,0.037,0.214,0.121,0.214,0.303
		c0,0.151-0.116,0.316-0.306,0.316c-0.04,0-0.084-0.014-0.124-0.029c-0.353-0.122-0.766-0.204-1.233-0.204
		c-0.774,0-1.364,0.295-1.364,0.862C114.507,55.688,117.757,54.841,117.757,56.84z"/>
	<path fill="#59616A" d="M119.484,53.266v4.672c0,0.189-0.16,0.34-0.353,0.34c-0.191,0-0.345-0.151-0.345-0.34v-4.672
		c0-0.19,0.153-0.348,0.345-0.348C119.324,52.918,119.484,53.076,119.484,53.266z"/>
	<path fill="#59616A" d="M125.989,55.598c-0.031,1.583-1.058,2.719-2.689,2.719c-1.641,0-2.66-1.137-2.691-2.719
		c0.031-1.582,1.05-2.719,2.691-2.719C124.931,52.879,125.958,54.016,125.989,55.598z M125.291,55.598
		c0-1.167-0.728-2.074-1.991-2.074c-1.272,0-1.993,0.908-1.993,2.074s0.721,2.074,1.993,2.074
		C124.563,57.672,125.291,56.765,125.291,55.598z"/>
	<path fill="#59616A" d="M131.77,53.266v4.521c0,0.271-0.23,0.491-0.506,0.491h-0.092c-0.169,0-0.315-0.083-0.406-0.203
		l-2.967-4.234v4.098c0,0.189-0.161,0.34-0.353,0.34c-0.191,0-0.345-0.151-0.345-0.34v-4.521c0-0.271,0.222-0.499,0.499-0.499h0.1
		c0.168,0,0.314,0.091,0.421,0.228l2.95,4.21v-4.09c0-0.19,0.153-0.348,0.345-0.348C131.608,52.918,131.77,53.076,131.77,53.266z"/>
	<path fill="#59616A" d="M135.066,56.121c0,0.175-0.138,0.304-0.314,0.304h-1.448c-0.177,0-0.307-0.129-0.307-0.304
		c0-0.173,0.13-0.311,0.307-0.311h1.448C134.929,55.81,135.066,55.947,135.066,56.121z"/>
	<path fill="#59616A" d="M142.213,53.417v4.521c0,0.189-0.153,0.34-0.344,0.34c-0.191,0-0.353-0.151-0.353-0.34v-4.301l-1.771,4.323
		c-0.083,0.19-0.268,0.318-0.49,0.318c-0.221,0-0.406-0.128-0.491-0.318l-1.77-4.323v4.301c0,0.189-0.161,0.34-0.352,0.34
		c-0.193,0-0.346-0.151-0.346-0.34v-4.521c0-0.271,0.222-0.499,0.499-0.499h0.252c0.208,0,0.392,0.136,0.467,0.318l1.74,4.285
		l1.74-4.285c0.076-0.182,0.26-0.318,0.467-0.318h0.253C141.991,52.918,142.213,53.146,142.213,53.417z"/>
	<path fill="#59616A" d="M148.062,57.938c0,0.189-0.13,0.34-0.345,0.34c-0.145,0-0.268-0.075-0.329-0.212l-0.499-1.181h-2.605
		l-0.498,1.181c-0.062,0.137-0.184,0.212-0.33,0.212c-0.214,0-0.345-0.151-0.345-0.34c0-0.046,0.016-0.099,0.039-0.151l1.954-4.559
		c0.069-0.16,0.215-0.311,0.444-0.311h0.078c0.229,0,0.375,0.151,0.444,0.311l1.955,4.559
		C148.047,57.84,148.062,57.893,148.062,57.938z M146.621,56.257l-1.034-2.461l-1.035,2.461H146.621z"/>
	<path fill="#59616A" d="M153.115,57.946c0.007,0.182-0.146,0.333-0.337,0.333c-0.115,0-0.215-0.052-0.276-0.136l-1.978-2.491
		l-0.874,0.871v1.416c0,0.189-0.161,0.34-0.353,0.34s-0.345-0.151-0.345-0.34v-4.672c0-0.19,0.153-0.348,0.345-0.348
		s0.353,0.158,0.353,0.348v2.408l2.622-2.635c0.053-0.062,0.146-0.122,0.26-0.122c0.184,0,0.337,0.144,0.322,0.326
		c-0.007,0.083-0.031,0.158-0.084,0.211L151,55.196l2.031,2.529C153.084,57.794,153.115,57.862,153.115,57.946z"/>
	<path fill="#59616A" d="M154.743,53.266v4.672c0,0.189-0.161,0.34-0.352,0.34c-0.192,0-0.345-0.151-0.345-0.34v-4.672
		c0-0.19,0.153-0.348,0.345-0.348C154.582,52.918,154.743,53.076,154.743,53.266z"/>
	<path fill="#59616A" d="M160.856,53.266v4.521c0,0.271-0.229,0.491-0.505,0.491h-0.092c-0.168,0-0.314-0.083-0.406-0.203
		l-2.967-4.234v4.098c0,0.189-0.161,0.34-0.352,0.34s-0.345-0.151-0.345-0.34v-4.521c0-0.271,0.222-0.499,0.499-0.499h0.1
		c0.168,0,0.314,0.091,0.421,0.228l2.95,4.21v-4.09c0-0.19,0.153-0.348,0.345-0.348C160.696,52.918,160.856,53.076,160.856,53.266z"
		/>
	<path fill="#59616A" d="M166.713,55.705v1.718c0,0.211-0.114,0.386-0.291,0.469c-0.506,0.25-1.088,0.425-1.755,0.425
		c-1.609,0-2.69-1.129-2.69-2.711c0-1.643,1.18-2.727,2.667-2.727c0.867,0,1.426,0.243,1.908,0.546
		c0.069,0.037,0.154,0.135,0.154,0.272c0,0.159-0.123,0.311-0.322,0.311c-0.062,0-0.115-0.015-0.162-0.038
		c-0.451-0.266-0.912-0.424-1.501-0.424c-1.157,0-2.046,0.735-2.046,2.06c0,1.167,0.767,2.059,2.085,2.059
		c0.537,0,0.988-0.144,1.341-0.333v-1.37h-1.265c-0.176,0-0.313-0.137-0.313-0.31c0-0.175,0.138-0.312,0.313-0.312h1.51
		C166.552,55.34,166.713,55.499,166.713,55.705z"/>
	<path fill="#59616A" d="M168.678,57.794v0.045c0,0.235-0.192,0.423-0.43,0.423h-0.076c-0.238,0-0.43-0.188-0.43-0.423v-0.045
		c0-0.235,0.192-0.424,0.43-0.424h0.076C168.486,57.37,168.678,57.56,168.678,57.794z"/>
	<path fill="#59616A" d="M172.561,53.266v4.672c0,0.189-0.161,0.34-0.353,0.34c-0.191,0-0.345-0.151-0.345-0.34v-4.672
		c0-0.19,0.154-0.348,0.345-0.348C172.399,52.918,172.561,53.076,172.561,53.266z"/>
	<path fill="#59616A" d="M178.674,53.266v4.521c0,0.271-0.23,0.491-0.506,0.491h-0.092c-0.168,0-0.314-0.083-0.406-0.203
		l-2.966-4.234v4.098c0,0.189-0.161,0.34-0.353,0.34c-0.192,0-0.346-0.151-0.346-0.34v-4.521c0-0.271,0.223-0.499,0.499-0.499h0.1
		c0.168,0,0.314,0.091,0.422,0.228l2.95,4.21v-4.09c0-0.19,0.153-0.348,0.345-0.348C178.513,52.918,178.674,53.076,178.674,53.266z"
		/>
	<path fill="#59616A" d="M183.765,56.84c0,0.855-0.774,1.477-1.962,1.477c-0.767,0-1.38-0.175-1.824-0.364
		c-0.116-0.045-0.215-0.175-0.215-0.31c0-0.167,0.123-0.319,0.314-0.319c0.047,0,0.093,0.008,0.147,0.032
		c0.344,0.151,0.85,0.309,1.509,0.309c0.758,0,1.34-0.211,1.34-0.871c0-1.12-3.257-0.499-3.257-2.363c0-0.84,0.69-1.553,1.985-1.553
		c0.598,0,1.111,0.099,1.524,0.251c0.108,0.037,0.215,0.121,0.215,0.303c0,0.151-0.116,0.316-0.307,0.316
		c-0.038,0-0.083-0.014-0.122-0.029c-0.353-0.122-0.766-0.204-1.234-0.204c-0.774,0-1.364,0.295-1.364,0.862
		C180.515,55.688,183.765,54.841,183.765,56.84z"/>
	<path fill="#59616A" d="M188.933,54.637c0,0.803-0.499,1.681-2.046,1.681h-1.395v1.621c0,0.189-0.161,0.34-0.353,0.34
		c-0.191,0-0.345-0.151-0.345-0.34v-4.635c0-0.189,0.153-0.348,0.345-0.348h1.748C188.434,52.956,188.933,53.834,188.933,54.637z
		 M188.236,54.637c0-0.493-0.277-1.031-1.418-1.031h-1.326v2.061h1.326C187.959,55.667,188.236,55.129,188.236,54.637z"/>
	<path fill="#59616A" d="M190.575,53.266v4.672c0,0.189-0.161,0.34-0.353,0.34s-0.345-0.151-0.345-0.34v-4.672
		c0-0.19,0.153-0.348,0.345-0.348S190.575,53.076,190.575,53.266z"/>
	<path fill="#59616A" d="M196.191,57.938c0,0.189-0.153,0.34-0.345,0.34c-0.214,0-0.352-0.136-0.352-0.34v-0.228
		c0-0.499-0.031-1.53-1.188-1.53h-1.586v1.758c0,0.189-0.161,0.34-0.353,0.34s-0.346-0.151-0.346-0.34v-4.635
		c0-0.189,0.154-0.348,0.346-0.348h1.786c1.455,0,2.084,0.667,2.084,1.538c0,0.583-0.33,1.143-1.004,1.37
		c0.85,0.219,0.958,1.303,0.958,1.727V57.938z M195.54,54.546c0-0.562-0.337-0.94-1.472-0.94h-1.349v1.924h1.387
		C194.964,55.53,195.54,55.189,195.54,54.546z"/>
	<path fill="#59616A" d="M201.184,57.922c0,0.182-0.146,0.318-0.33,0.318h-3.073c-0.191,0-0.345-0.151-0.345-0.34v-4.597
		c0-0.189,0.154-0.348,0.345-0.348h3.073c0.184,0,0.33,0.145,0.33,0.326c0,0.181-0.146,0.317-0.33,0.317h-2.721v1.674h2.445
		c0.184,0,0.33,0.144,0.33,0.325c0,0.182-0.146,0.318-0.33,0.318h-2.445v1.681h2.721C201.038,57.598,201.184,57.742,201.184,57.922z
		"/>
	<path fill="#59616A" d="M208.519,57.574c-0.007,0.144-0.069,0.22-0.169,0.273c-0.475,0.264-0.996,0.47-1.747,0.47
		c-1.524,0-2.683-1.031-2.683-2.719c0-1.688,1.158-2.719,2.683-2.719c0.751,0,1.272,0.207,1.747,0.471
		c0.1,0.052,0.162,0.128,0.169,0.273c0.007,0.159-0.116,0.302-0.307,0.302c-0.039,0-0.092-0.007-0.138-0.03
		c-0.407-0.211-0.805-0.355-1.403-0.355c-1.356,0-2.054,0.893-2.054,2.06s0.697,2.06,2.054,2.06c0.598,0,0.996-0.144,1.403-0.355
		c0.046-0.023,0.099-0.03,0.138-0.03C208.403,57.272,208.526,57.416,208.519,57.574z"/>
	<path fill="#59616A" d="M213.84,53.266v4.672c0,0.189-0.161,0.34-0.353,0.34c-0.191,0-0.345-0.151-0.345-0.34v-2.015h-2.904v2.015
		c0,0.189-0.161,0.34-0.353,0.34s-0.345-0.151-0.345-0.34v-4.672c0-0.19,0.153-0.348,0.345-0.348s0.353,0.158,0.353,0.348v2.014
		h2.904v-2.014c0-0.19,0.154-0.348,0.345-0.348C213.679,52.918,213.84,53.076,213.84,53.266z"/>
	<path fill="#59616A" d="M219.69,57.938c0,0.189-0.13,0.34-0.346,0.34c-0.145,0-0.268-0.075-0.329-0.212l-0.498-1.181h-2.606
		l-0.498,1.181c-0.061,0.137-0.184,0.212-0.329,0.212c-0.214,0-0.346-0.151-0.346-0.34c0-0.046,0.015-0.099,0.04-0.151l1.954-4.559
		c0.069-0.16,0.214-0.311,0.445-0.311h0.076c0.229,0,0.375,0.151,0.444,0.311l1.955,4.559
		C219.675,57.84,219.69,57.893,219.69,57.938z M218.249,56.257l-1.035-2.461l-1.035,2.461H218.249z"/>
	<path fill="#59616A" d="M225.249,53.266v4.521c0,0.271-0.23,0.491-0.505,0.491h-0.093c-0.168,0-0.313-0.083-0.406-0.203
		l-2.966-4.234v4.098c0,0.189-0.161,0.34-0.353,0.34c-0.191,0-0.345-0.151-0.345-0.34v-4.521c0-0.271,0.223-0.499,0.499-0.499h0.1
		c0.168,0,0.314,0.091,0.421,0.228l2.95,4.21v-4.09c0-0.19,0.153-0.348,0.345-0.348C225.088,52.918,225.249,53.076,225.249,53.266z"
		/>
	<path fill="#59616A" d="M231.106,55.705v1.718c0,0.211-0.115,0.386-0.291,0.469c-0.506,0.25-1.088,0.425-1.755,0.425
		c-1.609,0-2.69-1.129-2.69-2.711c0-1.643,1.18-2.727,2.667-2.727c0.867,0,1.426,0.243,1.908,0.546
		c0.069,0.037,0.153,0.135,0.153,0.272c0,0.159-0.122,0.311-0.322,0.311c-0.061,0-0.115-0.015-0.161-0.038
		c-0.452-0.266-0.912-0.424-1.501-0.424c-1.158,0-2.046,0.735-2.046,2.06c0,1.167,0.767,2.059,2.084,2.059
		c0.536,0,0.988-0.144,1.341-0.333v-1.37h-1.265c-0.176,0-0.314-0.137-0.314-0.31c0-0.175,0.138-0.312,0.314-0.312h1.51
		C230.945,55.34,231.106,55.499,231.106,55.705z"/>
	<path fill="#59616A" d="M236.097,57.922c0,0.182-0.146,0.318-0.329,0.318h-3.074c-0.191,0-0.345-0.151-0.345-0.34v-4.597
		c0-0.189,0.154-0.348,0.345-0.348h3.074c0.183,0,0.329,0.145,0.329,0.326c0,0.181-0.146,0.317-0.329,0.317h-2.722v1.674h2.445
		c0.184,0,0.331,0.144,0.331,0.325c0,0.182-0.147,0.318-0.331,0.318h-2.445v1.681h2.722
		C235.952,57.598,236.097,57.742,236.097,57.922z"/>
</g>
</svg>
